<svg xmlns="http://www.w3.org/2000/svg" width="100" height="100" viewBox="0 0 100 100" version="1.1"><path d="M 42 29.500 C 42 30.325, 42.675 31, 43.500 31 C 44.325 31, 45 31.675, 45 32.500 C 45 33.325, 45.675 34, 46.500 34 C 47.738 34, 48 35.833, 48 44.500 C 48 53.167, 47.738 55, 46.500 55 C 45.675 55, 45 54.325, 45 53.500 C 45 52.675, 44.325 52, 43.500 52 C 42.675 52, 42 51.325, 42 50.500 C 42 49.675, 41.325 49, 40.500 49 C 39.675 49, 39 48.325, 39 47.500 C 39 46.675, 38.325 46, 37.500 46 C 36.675 46, 36 45.325, 36 44.500 C 36 43.675, 35.325 43, 34.500 43 C 33.500 43, 33 42, 33 40 C 33 38, 33.500 37, 34.500 37 C 35.325 37, 36 36.325, 36 35.500 C 36 34.675, 36.675 34, 37.500 34 C 38.325 34, 39 33.325, 39 32.500 C 39 31.675, 38.325 31, 37.500 31 C 36.675 31, 36 31.675, 36 32.500 C 36 33.325, 35.325 34, 34.500 34 C 33.675 34, 33 34.675, 33 35.500 C 33 36.325, 32.325 37, 31.500 37 C 30.389 37, 30 38.167, 30 41.500 C 30 44.833, 30.389 46, 31.500 46 C 32.325 46, 33 46.675, 33 47.500 C 33 48.325, 33.675 49, 34.500 49 C 35.325 49, 36 49.675, 36 50.500 C 36 51.325, 36.675 52, 37.500 52 C 38.325 52, 39 52.675, 39 53.500 C 39 54.325, 39.675 55, 40.500 55 C 41.325 55, 42 55.675, 42 56.500 C 42 57.325, 42.675 58, 43.500 58 C 44.500 58, 45 59, 45 61 C 45 63, 44.500 64, 43.500 64 C 42.675 64, 42 64.675, 42 65.500 C 42 66.325, 41.325 67, 40.500 67 C 39.675 67, 39 67.675, 39 68.500 C 39 69.325, 38.325 70, 37.500 70 C 36.675 70, 36 70.675, 36 71.500 C 36 72.325, 35.325 73, 34.500 73 C 33.675 73, 33 73.675, 33 74.500 C 33 75.325, 32.325 76, 31.500 76 C 30.389 76, 30 77.167, 30 80.500 C 30 83.833, 30.389 85, 31.500 85 C 32.325 85, 33 85.675, 33 86.500 C 33 87.325, 33.675 88, 34.500 88 C 35.325 88, 36 88.675, 36 89.500 C 36 90.325, 36.675 91, 37.500 91 C 38.325 91, 39 91.675, 39 92.500 C 39 93.325, 39.675 94, 40.500 94 C 41.325 94, 42 94.675, 42 95.500 C 42 96.325, 42.675 97, 43.500 97 C 44.325 97, 45 97.675, 45 98.500 C 45 99.611, 46.167 100, 49.500 100 C 52.833 100, 54 99.611, 54 98.500 C 54 97.675, 54.675 97, 55.500 97 C 56.325 97, 57 96.325, 57 95.500 C 57 94.675, 57.675 94, 58.500 94 C 59.325 94, 60 93.325, 60 92.500 C 60 91.675, 60.675 91, 61.500 91 C 62.325 91, 63 90.325, 63 89.500 C 63 88.675, 63.675 88, 64.500 88 C 65.325 88, 66 87.325, 66 86.500 C 66 85.675, 66.675 85, 67.500 85 C 68.611 85, 69 83.833, 69 80.500 C 69 77.167, 68.611 76, 67.500 76 C 66.675 76, 66 75.325, 66 74.500 C 66 73.675, 65.325 73, 64.500 73 C 63.675 73, 63 72.325, 63 71.500 C 63 70.675, 62.325 70, 61.500 70 C 60.675 70, 60 69.325, 60 68.500 C 60 67.675, 59.325 67, 58.500 67 C 57.675 67, 57 66.325, 57 65.500 C 57 64.675, 56.325 64, 55.500 64 C 54.500 64, 54 63, 54 61 C 54 59, 54.500 58, 55.500 58 C 56.325 58, 57 57.325, 57 56.500 C 57 55.675, 57.675 55, 58.500 55 C 59.325 55, 60 54.325, 60 53.500 C 60 52.675, 60.675 52, 61.500 52 C 62.325 52, 63 51.325, 63 50.500 C 63 49.675, 63.675 49, 64.500 49 C 65.325 49, 66 48.325, 66 47.500 C 66 46.675, 66.675 46, 67.500 46 C 68.611 46, 69 44.833, 69 41.500 C 69 38.167, 68.611 37, 67.500 37 C 66.675 37, 66 36.325, 66 35.500 C 66 34.675, 65.325 34, 64.500 34 C 63.675 34, 63 33.325, 63 32.500 C 63 31.675, 62.325 31, 61.500 31 C 60.675 31, 60 31.675, 60 32.500 C 60 33.325, 60.675 34, 61.500 34 C 62.325 34, 63 34.675, 63 35.500 C 63 36.325, 63.675 37, 64.500 37 C 65.500 37, 66 38, 66 40 C 66 42, 65.500 43, 64.500 43 C 63.675 43, 63 43.675, 63 44.500 C 63 45.325, 62.325 46, 61.500 46 C 60.675 46, 60 46.675, 60 47.500 C 60 48.325, 59.325 49, 58.500 49 C 57.675 49, 57 49.675, 57 50.500 C 57 51.325, 56.325 52, 55.500 52 C 54.675 52, 54 52.675, 54 53.500 C 54 54.325, 53.325 55, 52.500 55 C 51.262 55, 51 53.167, 51 44.500 C 51 35.833, 51.262 34, 52.500 34 C 53.325 34, 54 33.325, 54 32.500 C 54 31.675, 54.675 31, 55.500 31 C 56.325 31, 57 30.325, 57 29.500 C 57 28.675, 56.325 28, 55.500 28 C 54.675 28, 54 28.675, 54 29.500 C 54 30.325, 53.325 31, 52.500 31 C 51.675 31, 51 30.325, 51 29.500 C 51 28.675, 50.325 28, 49.500 28 C 48.675 28, 48 28.675, 48 29.500 C 48 30.325, 47.325 31, 46.500 31 C 45.675 31, 45 30.325, 45 29.500 C 45 28.675, 44.325 28, 43.500 28 C 42.675 28, 42 28.675, 42 29.500 M 45 68.500 C 45 69.325, 44.325 70, 43.500 70 C 42.675 70, 42 70.675, 42 71.500 C 42 72.325, 41.325 73, 40.500 73 C 39.675 73, 39 73.675, 39 74.500 C 39 75.325, 38.325 76, 37.500 76 C 36.675 76, 36 76.675, 36 77.500 C 36 78.325, 35.325 79, 34.500 79 C 33.675 79, 33 79.675, 33 80.500 C 33 81.325, 33.675 82, 34.500 82 C 35.325 82, 36 82.675, 36 83.500 C 36 84.325, 36.675 85, 37.500 85 C 38.325 85, 39 85.675, 39 86.500 C 39 87.325, 39.675 88, 40.500 88 C 41.325 88, 42 88.675, 42 89.500 C 42 90.325, 42.675 91, 43.500 91 C 44.325 91, 45 91.675, 45 92.500 C 45 93.325, 45.675 94, 46.500 94 C 47.759 94, 48 91.833, 48 80.500 C 48 69.167, 47.759 67, 46.500 67 C 45.675 67, 45 67.675, 45 68.500 M 51 80.500 C 51 91.833, 51.241 94, 52.500 94 C 53.325 94, 54 93.325, 54 92.500 C 54 91.675, 54.675 91, 55.500 91 C 56.325 91, 57 90.325, 57 89.500 C 57 88.675, 57.675 88, 58.500 88 C 59.325 88, 60 87.325, 60 86.500 C 60 85.675, 60.675 85, 61.500 85 C 62.325 85, 63 84.325, 63 83.500 C 63 82.675, 63.675 82, 64.500 82 C 65.325 82, 66 81.325, 66 80.500 C 66 79.675, 65.325 79, 64.500 79 C 63.675 79, 63 78.325, 63 77.500 C 63 76.675, 62.325 76, 61.500 76 C 60.675 76, 60 75.325, 60 74.500 C 60 73.675, 59.325 73, 58.500 73 C 57.675 73, 57 72.325, 57 71.500 C 57 70.675, 56.325 70, 55.500 70 C 54.675 70, 54 69.325, 54 68.500 C 54 67.675, 53.325 67, 52.500 67 C 51.241 67, 51 69.167, 51 80.500" stroke="none" fill="#b81c1c" fill-rule="evenodd"/><path d="" stroke="none" fill="#b41c1c" fill-rule="evenodd"/></svg>